<?xml version="1.0" encoding="utf-8"?>
<!-- Generator: Adobe Illustrator 16.0.0, SVG Export Plug-In . SVG Version: 6.00 Build 0)  -->
<!DOCTYPE svg PUBLIC "-//W3C//DTD SVG 1.1//EN" "http://www.w3.org/Graphics/SVG/1.1/DTD/svg11.dtd">
<svg version="1.1" id="Layer_1" xmlns:sketch="http://www.bohemiancoding.com/sketch/ns"
	 xmlns="http://www.w3.org/2000/svg" xmlns:xlink="http://www.w3.org/1999/xlink" x="0px" y="0px" width="80px" height="80px"
	 viewBox="600 320 80 80" enable-background="new 600 320 80 80" xml:space="preserve">
<title>rect17957</title>
<desc>Created with Sketch.</desc>
<g sketch:type="MSPage">
	<path sketch:type="MSShapeGroup" fill="#FFFFFF" d="M667.371,345.071h-4.977v-4.977h4.977V345.071z M662.395,345.071h-4.977v-4.977
		h4.977V345.071z M657.418,345.071h-4.977v-4.977h4.977V345.071z M652.441,345.071h-4.975v-4.977h4.975V345.071z M647.467,345.071
		h-4.978v-4.977h4.978V345.071z M642.489,345.071h-4.977v-4.977h4.977V345.071z M637.513,345.071h-4.977v-4.977h4.977V345.071z
		 M632.536,345.071h-4.978v-4.977h4.978V345.071z M627.559,345.071h-4.977v-4.977h4.977V345.071z M622.582,345.071h-4.977v-4.977
		h4.977V345.071z M617.605,345.071h-4.975v-4.977h4.975V345.071z M612.631,350.047h-4.979v-4.976h4.979V350.047z M612.631,355.024
		h-4.979v-4.977h4.979V355.024z M612.631,360h-4.979v-4.977h4.979V360z M612.631,364.977h-4.979V360h4.979V364.977z
		 M612.631,369.954h-4.979v-4.978h4.979V369.954z M612.631,374.929h-4.979v-4.975h4.979V374.929z M612.631,379.907h-4.979v-4.979
		h4.979V379.907z M617.605,384.882h-4.975v-4.975h4.975V384.882z M622.582,384.882h-4.977v-4.975h4.977V384.882z M627.559,384.882
		h-4.977v-4.975h4.977V384.882z M632.536,384.882h-4.978v-4.975h4.978V384.882z M637.513,384.882h-4.977v-4.975h4.977V384.882z
		 M642.489,384.882h-4.977v-4.975h4.977V384.882z M647.467,384.882h-4.978v-4.975h4.978V384.882z M652.441,384.882h-4.975v-4.975
		h4.975V384.882z M657.418,384.882h-4.977v-4.975h4.977V384.882z M662.395,384.882h-4.977v-4.975h4.977V384.882z M667.371,384.882
		h-4.977v-4.975h4.977V384.882z M672.349,379.907h-4.978v-4.979h4.978V379.907z M672.349,374.929h-4.978v-4.975h4.978V374.929z
		 M672.349,369.954h-4.978v-4.978h4.978V369.954z M672.349,364.977h-4.978V360h4.978V364.977z M672.349,360h-4.978v-4.977h4.978V360
		z M672.349,355.024h-4.978v-4.977h4.978V355.024z M672.349,350.047h-4.978v-4.976h4.978V350.047z M647.467,364.977h-4.978V360
		h4.978V364.977z M642.489,360h-4.977v-4.977h4.977V360z M637.513,355.024h-4.977v-4.977h4.977V355.024z M637.513,374.929h-4.977
		v-4.975h4.977V374.929z M637.513,360h-4.977v-4.977h4.977V360z M637.513,364.977h-4.977V360h4.977V364.977z M637.513,369.954
		h-4.977v-4.978h4.977V369.954z M642.489,369.954h-4.977v-4.978h4.977V369.954z M652.441,389.862h-4.975v-4.979h4.975V389.862z
		 M657.418,389.862h-4.977v-4.979h4.977V389.862z M657.418,394.836h-4.977v-4.975h4.977V394.836z M662.395,394.836h-4.977v-4.975
		h4.977V394.836z M657.418,399.813h-4.977v-4.977h4.977V399.813z M662.395,399.813h-4.977v-4.977h4.977V399.813z M627.559,389.862
		h-4.977v-4.979h4.977V389.862z M632.536,389.862h-4.978v-4.979h4.978V389.862z M627.559,394.836h-4.977v-4.975h4.977V394.836z
		 M627.559,399.813h-4.977v-4.977h4.977V399.813z M622.582,399.813h-4.977v-4.977h4.977V399.813z M622.582,394.836h-4.977v-4.975
		h4.977V394.836z M637.513,340.094h-4.977v-4.977h4.977V340.094z M632.536,335.117h-4.978v-4.976h4.978V335.117z M627.559,330.141
		h-4.977v-4.977h4.977V330.141z M622.582,325.165h-4.977v-4.977h4.977V325.165z M647.467,340.094h-4.978v-4.977h4.978V340.094z
		 M652.441,335.117h-4.975v-4.976h4.975V335.117z M657.418,330.141h-4.977v-4.977h4.977V330.141z M662.395,325.165h-4.977v-4.977
		h4.977V325.165z M642.489,355.024h-4.977v-4.977h4.977V355.024z M647.467,360h-4.978v-4.977h4.978V360z M652.441,364.977h-4.975
		V360h4.975V364.977z M647.467,369.954h-4.978v-4.978h4.978V369.954z M642.489,374.929h-4.977v-4.975h4.977V374.929z
		 M642.489,364.977h-4.977V360h4.977V364.977z"/>
</g>
</svg>
