<?xml version="1.0" encoding="utf-8"?>
<!-- Generator: Adobe Illustrator 16.0.0, SVG Export Plug-In . SVG Version: 6.00 Build 0)  -->
<!DOCTYPE svg PUBLIC "-//W3C//DTD SVG 1.1//EN" "http://www.w3.org/Graphics/SVG/1.1/DTD/svg11.dtd">
<svg version="1.1"
	 id="Layer_1" xmlns:cc="http://creativecommons.org/ns#" xmlns:svg="http://www.w3.org/2000/svg" xmlns:dc="http://purl.org/dc/elements/1.1/" xmlns:rdf="http://www.w3.org/1999/02/22-rdf-syntax-ns#" xmlns:sodipodi="http://sodipodi.sourceforge.net/DTD/sodipodi-0.dtd" xmlns:inkscape="http://www.inkscape.org/namespaces/inkscape"
	 xmlns="http://www.w3.org/2000/svg" xmlns:xlink="http://www.w3.org/1999/xlink" x="0px" y="0px" width="80px" height="80px"
	 viewBox="257.64 380.945 80 80" enable-background="new 257.64 380.945 80 80" xml:space="preserve">
<g transform="translate(0,-952.36218)">
	<path fill="#EFEFEF" d="M277.253,1343.374c-1.236,0.091-2.164,1.168-2.073,2.403c0.044,0.601,0.328,1.158,0.787,1.548l6.687,5.798
		h-16.436c-0.077-0.004-0.155-0.004-0.233,0c-1.147,0.12-2.017,1.091-2.011,2.244v32.918c0,1.239,1.005,2.244,2.244,2.244h3.741
		v2.993c-0.018,1.238,0.973,2.258,2.213,2.275c1.239,0.018,2.258-0.973,2.275-2.213c0-0.021,0-0.042,0-0.063v-2.993h25.741
		c1.407,7.227,7.781,12.718,15.406,12.718c8.65,0,15.711-7.061,15.711-15.71c0-8.65-7.061-15.711-15.711-15.711
		c-0.254,0-0.496,0.012-0.748,0.023v-16.482c0-1.239-1.005-2.244-2.244-2.244h-16.437l6.688-5.798
		c0.944-0.803,1.06-2.219,0.257-3.164c-0.457-0.538-1.142-0.83-1.847-0.787c-0.502,0.03-0.979,0.228-1.356,0.562l-10.497,9.094
		l-10.497-9.094C278.459,1343.531,277.86,1343.328,277.253,1343.374z M268.463,1357.612h41.896v15.126
		c-5.644,2.007-9.818,7.136-10.404,13.303h-31.491V1357.612z M272.718,1359.856c-1.147,0.12-2.017,1.091-2.011,2.244v19.451
		c0,1.239,1.005,2.244,2.244,2.244h24.688c1.239,0,2.244-1.005,2.244-2.244V1362.1c0-1.239-1.005-2.244-2.244-2.244h-24.688
		C272.874,1359.852,272.795,1359.852,272.718,1359.856z M305.122,1359.856c-1.652,0-2.992,1.34-2.992,2.992
		c0,1.653,1.34,2.993,2.992,2.993s2.993-1.34,2.993-2.993C308.115,1361.196,306.774,1359.856,305.122,1359.856z M275.196,1364.344
		h20.2v14.963h-20.2V1364.344z M305.122,1368.086c-1.652,0-2.992,1.34-2.992,2.992s1.34,2.992,2.992,2.992s2.993-1.34,2.993-2.992
		S306.774,1368.086,305.122,1368.086z M315.595,1376.315c6.225,0,11.222,4.997,11.222,11.222s-4.997,11.222-11.222,11.222
		c-6.224,0-11.222-4.997-11.222-11.222S309.372,1376.315,315.595,1376.315z M315.572,1378.512c-1.239,0.013-2.233,1.028-2.221,2.268
		c0,0.008,0,0.016,0,0.023v7.481c0.008,0.661,0.307,1.286,0.818,1.707l4.488,3.74c0.869,0.884,2.29,0.896,3.175,0.028
		c0.884-0.869,0.896-2.291,0.027-3.175c-0.106-0.108-0.224-0.206-0.35-0.29l-3.671-3.063v-6.429
		c0.026-1.239-0.958-2.265-2.197-2.291C315.619,1378.512,315.595,1378.512,315.572,1378.512z"/>
</g>
</svg>
