<?xml version="1.0" encoding="utf-8"?>
<!-- Generator: Adobe Illustrator 16.0.0, SVG Export Plug-In . SVG Version: 6.00 Build 0)  -->
<!DOCTYPE svg PUBLIC "-//W3C//DTD SVG 1.1//EN" "http://www.w3.org/Graphics/SVG/1.1/DTD/svg11.dtd">
<svg version="1.1" id="Layer_1" xmlns="http://www.w3.org/2000/svg" xmlns:xlink="http://www.w3.org/1999/xlink" x="0px" y="0px"
	 width="200px" height="200px" viewBox="0 0 200 200" enable-background="new 0 0 200 200" xml:space="preserve">
<g>
	<path fill="#030303" d="M99.999,0.6c54.897,0,99.401,44.504,99.401,99.399c0,54.897-44.504,99.401-99.401,99.401
		C45.104,199.4,0.6,154.896,0.6,99.999C0.6,45.104,45.104,0.6,99.999,0.6z"/>
	<g>
		<path fill="#F3F3F3" d="M122.924,161.789l-21.492-21.133l10.029-1.791c1.074-0.182,1.793-1.434,1.613-3.047l-1.432-7.879
			c-0.182-1.434-1.434-2.508-2.508-2.33l-13.075,2.33l2.685-6.984c0.896-0.18,1.614-0.537,2.507-0.896
			c6.092-3.045,8.598-10.566,5.553-16.656c-0.178-0.357-0.357-0.535-0.357-0.717h0.18l-1.076-6.806l-6.806,1.076
			c-2.685-0.718-5.73-0.358-8.417,0.896c-0.358,0.178-0.716,0.358-1.074,0.536l-6.626,1.076l1.074,6.626
			c-0.716,2.688-0.358,5.73,0.896,8.418c0.358,0.895,0.896,1.611,1.611,2.326l-4.656,12.18c-2.686,2.148-4.119,5.732-3.581,9.135
			l-8.598,22.387c-0.894,2.148-0.358,4.299,0.896,4.836l7.344,2.865c1.432,0.537,3.223-0.715,3.939-3.045l7.164-18.447
			l24.716,24.357c1.434,1.254,3.225,1.611,4.299,0.537l5.553-5.732C124.537,165.014,124.355,163.223,122.924,161.789z
			 M89.434,140.297c-2.149,0.895-4.657-0.359-5.375-2.508c-0.896-2.148,0.36-4.654,2.507-5.373c2.149-0.896,4.657,0.357,5.375,2.508
			C92.657,137.072,91.581,139.58,89.434,140.297z M90.508,108.955c0-3.045,2.507-5.553,5.552-5.553c3.043,0,5.553,2.508,5.553,5.553
			s-2.51,5.553-5.553,5.553C93.015,114.508,90.508,112,90.508,108.955z"/>
		<g>
			
				<ellipse transform="matrix(-0.144 -0.9896 0.9896 -0.144 78.9863 202.0421)" fill="none" cx="126.878" cy="66.859" rx="25.791" ry="7.702"/>
			<path fill="#FFFFFF" d="M130.088,93.373c-5.193,0-10.029-13.074-11.82-25.253c-1.076-6.984-1.076-13.61-0.357-18.625
				c0.715-5.552,2.508-8.598,5.014-8.956c0.18,0,0.359,0,0.537,0c5.193,0,10.031,13.075,11.82,25.253
				c1.076,6.984,1.076,13.612,0.357,18.627c-0.715,5.55-2.506,8.596-5.014,8.953C130.447,93.373,130.268,93.373,130.088,93.373z
				 M123.461,42.151h-0.178c-1.611,0.18-2.865,3.045-3.584,7.522c-0.715,5.015-0.535,11.463,0.359,18.269
				c2.15,14.328,6.984,23.819,10.209,23.819h0.18c3.223-0.538,5.193-11.103,3.223-25.789
				C131.52,51.644,126.686,42.151,123.461,42.151z"/>
		</g>
		<g>
			<path fill="#FFFFFF" d="M63.463,103.225L63.463,103.225c-3.043,0-5.55-4.119-6.984-7.522c-2.149-4.657-3.761-10.925-4.835-17.731
				c-1.076-6.984-1.253-13.612-0.36-18.805c0.718-5.373,2.507-8.598,5.015-8.956l66.268-9.849c0,0,0.895,0,0.895,0.536
				c0,0.358-0.178,0.896-0.717,0.896l0,0l0,0l0,0c-1.611,0-2.865,3.223-3.58,7.702c-0.719,5.015-0.539,11.641,0.357,18.447
				c2.15,14.686,6.984,23.819,10.209,23.819h0.178c0.539,0,0.896,0.18,0.896,0.716c0,0.538-0.18,0.896-0.717,0.896l-66.265,9.672
				C63.823,103.225,63.643,103.225,63.463,103.225z M119.879,42.509l-63.22,9.313c-1.611,0.18-2.867,3.045-3.583,7.522
				c-0.716,5.015-0.536,11.463,0.358,18.269c2.149,14.686,6.986,23.818,10.209,23.818l0,0h0.18l63.22-9.132
				c-1.791-1.434-3.223-3.941-4.119-6.269c-2.148-4.657-3.76-10.925-4.836-17.731C116.656,58.09,116.834,47.166,119.879,42.509z"/>
		</g>
		<path fill="#FFFFFF" d="M116.299,95.702c-2.508,0-4.838-2.507-7.164-7.522c-2.15-4.657-3.941-11.283-5.016-18.089
			c-1.074-6.986-1.074-13.612-0.359-18.805c0.896-5.732,2.688-8.956,5.195-9.313c0.715-0.18,1.254,0.358,1.254,0.896
			c0.18,0.536-0.359,1.253-0.896,1.253c-1.074,0.178-2.508,2.147-3.402,7.342c-0.717,5.015-0.537,11.463,0.359,18.269
			c1.074,6.804,2.686,13.072,4.834,17.551c2.15,4.657,4.119,6.268,5.195,6.088c0.715-0.178,1.254,0.358,1.254,0.896
			c0.178,0.538-0.359,1.253-0.896,1.253C116.656,95.702,116.477,95.702,116.299,95.702z"/>
		<path fill="#FFFFFF" d="M112.357,96.418c-2.508,0-4.836-2.507-7.164-7.522c-2.148-4.657-3.941-11.283-5.015-18.089
			c-1.969-13.075-0.896-27.223,4.835-28.119c0.719-0.18,1.256,0.358,1.256,0.896c0.178,0.538-0.359,1.253-0.896,1.253
			c-2.688,0.358-5.194,10.209-2.867,25.611c1.076,6.806,2.688,13.074,4.838,17.551c2.148,4.657,4.117,6.268,5.191,6.09
			c0.719-0.18,1.256,0.358,1.256,0.894c0.178,0.718-0.359,1.253-0.896,1.253C112.715,96.238,112.535,96.418,112.357,96.418z"/>
		<path fill="#FFFFFF" d="M108.596,96.956c-2.506,0-4.836-2.507-7.164-7.522c-2.148-4.657-3.94-11.283-5.014-18.089
			c-1.969-13.074-0.896-27.223,4.834-28.118c0.719-0.18,1.254,0.358,1.254,0.896c0.18,0.716-0.357,1.254-0.893,1.254
			c-2.688,0.358-5.195,10.207-2.868,25.611c0.896,6.804,2.687,13.072,4.837,17.551c2.15,4.657,4.119,6.269,5.195,6.088
			c0.715-0.178,1.25,0.358,1.25,0.896c0.182,0.716-0.357,1.254-0.893,1.254C108.777,96.956,108.777,96.956,108.596,96.956z"/>
		<path fill="#FFFFFF" d="M104.656,97.492c-5.553,0-10.388-12.895-12.179-25.611c-1.969-13.073-0.896-27.223,4.837-28.119
			c0.715-0.178,1.253,0.36,1.253,0.896c0.178,0.718-0.358,1.253-0.896,1.253c-2.687,0.358-5.194,10.209-2.865,25.611
			c2.149,15.224,7.342,23.999,10.029,23.642c0.715-0.18,1.254,0.357,1.254,0.896c0.18,0.538-0.357,1.254-0.896,1.254
			C105.014,97.492,104.836,97.492,104.656,97.492z"/>
		<path fill="#FFFFFF" d="M100.717,98.029c-5.553,0-10.39-12.894-12.179-25.611c-1.076-6.984-1.076-13.61-0.36-18.805
			c0.896-5.73,2.688-8.956,5.194-9.313c0.716-0.178,1.254,0.358,1.254,0.896c0.18,0.538-0.358,1.254-0.896,1.254
			c-1.073,0.18-2.507,2.149-3.403,7.344c-0.716,5.015-0.536,11.461,0.36,18.087c2.149,15.224,7.342,23.999,10.03,23.641
			c0.714-0.178,1.253,0.358,1.253,0.896c0.178,0.538-0.357,1.253-0.896,1.253C101.074,98.029,100.895,98.029,100.717,98.029z"/>
		<path fill="#FFFFFF" d="M96.956,98.567c-5.553,0-10.39-12.895-12.179-25.611c-1.076-6.984-1.076-13.612-0.358-18.805
			c0.894-5.732,2.685-8.956,5.192-9.313c0.716-0.18,1.254,0.358,1.254,0.896c0.18,0.536-0.358,1.253-0.896,1.253
			c-1.074,0.178-2.507,2.149-3.403,7.342c-0.715,5.015-0.536,11.463,0.36,18.269c2.147,15.222,7.342,24,10.029,23.639
			c0.715-0.178,1.253,0.36,1.253,0.896c0.178,0.718-0.358,1.253-0.896,1.253C97.134,98.567,97.134,98.567,96.956,98.567z"/>
		<path fill="#FFFFFF" d="M93.015,99.105c-5.553,0-10.387-12.897-12.179-25.611c-1.074-6.986-1.074-13.612-0.358-18.807
			c0.896-5.73,2.685-8.954,5.192-9.312c0.718-0.18,1.256,0.358,1.256,0.894c0.178,0.718-0.36,1.254-0.896,1.254
			c-1.076,0.18-2.507,2.149-3.403,7.344c-0.716,5.015-0.538,11.463,0.358,18.089c2.149,15.224,7.344,24,10.029,23.642
			c0.715-0.18,1.253,0.358,1.253,0.894c0.18,0.538-0.358,1.253-0.896,1.253C93.373,99.105,93.195,99.105,93.015,99.105z"/>
		<path fill="#FFFFFF" d="M89.074,99.641c-5.55,0-10.387-12.895-12.178-25.611c-1.97-13.075-0.894-27.223,4.836-28.119
			c0.716-0.178,1.254,0.358,1.254,0.896c0.178,0.716-0.358,1.253-0.896,1.253c-2.685,0.358-5.194,10.209-2.865,25.611
			c2.149,15.224,7.342,23.999,10.029,23.642c0.538-0.18,1.254,0.357,1.254,0.896c0,0.716-0.358,1.254-0.896,1.254
			C89.434,99.641,89.254,99.641,89.074,99.641z"/>
		<path fill="#FFFFFF" d="M85.313,100.359c-5.55,0-10.387-12.896-12.179-25.611c-1.074-6.986-1.074-13.612-0.358-18.807
			c0.896-5.73,2.688-8.954,5.195-9.312c0.716,0,1.253,0.358,1.253,0.894c0.178,0.538-0.358,1.255-0.896,1.255
			c-1.074,0.178-2.507,2.147-3.403,7.342c-0.716,5.015-0.538,11.463,0.358,18.267c2.149,15.224,7.344,23.999,10.029,23.641
			c0.718-0.178,1.253,0.358,1.253,0.896c0.18,0.538-0.358,1.253-0.896,1.253C85.493,100.359,85.313,100.359,85.313,100.359z"/>
		<circle fill="#FFFFFF" cx="96.06" cy="108.955" r="2.328"/>
		<circle fill="#FFFFFF" cx="87.82" cy="136.357" r="1.791"/>
		<path fill="#FFFFFF" d="M130.088,89.792c-0.537-0.18-2.148-1.612-3.939-5.911c-1.793-4.299-3.404-10.029-4.299-16.297
			c-0.896-6.09-1.074-12.179-0.537-16.835c0.537-4.837,1.791-6.626,2.148-6.806c0.537,0.18,2.148,1.434,3.941,5.91
			c1.791,4.299,3.402,10.029,4.299,16.298c0.895,6.09,1.072,12.179,0.537,16.835C131.701,87.82,130.625,89.612,130.088,89.792z"/>
	</g>
</g>
</svg>
